<svg width="32" height="32" viewBox="0 0 32 32" fill="none" xmlns="http://www.w3.org/2000/svg">
<path d="M1.25 27.003C1.25 25.0515 2.02521 23.18 3.40509 21.8001C4.78498 20.4202 6.6565 19.645 8.60795 19.645H23.3239C25.2753 19.645 27.1468 20.4202 28.5267 21.8001C29.9066 23.18 30.6818 25.0515 30.6818 27.003C30.6818 27.9787 30.2942 28.9145 29.6043 29.6044C28.9143 30.2943 27.9786 30.682 27.0028 30.682H4.92898C3.95325 30.682 3.01749 30.2943 2.32755 29.6044C1.63761 28.9145 1.25 27.9787 1.25 27.003Z" stroke="#3086E1" stroke-width="2.5" stroke-linejoin="round"/>
<path d="M15.9659 12.2869C19.0137 12.2869 21.4844 9.81623 21.4844 6.76847C21.4844 3.7207 19.0137 1.25 15.9659 1.25C12.9181 1.25 10.4474 3.7207 10.4474 6.76847C10.4474 9.81623 12.9181 12.2869 15.9659 12.2869Z" stroke="#3086E1" stroke-width="2.5"/>
</svg>
